<svg xmlns="http://www.w3.org/2000/svg" xml:space="preserve" style="enable-background:new 0 0 122.88 105.98" viewBox="0 0 122.88 105.98"><path fill="#080" d="M122.88 105.98H9.59v-.02c-2.65 0-5.05-1.08-6.78-2.81A9.522 9.522 0 0 1 .02 96.4H0V0h12.26v93.73h110.62v12.25zM83.37 45.6h19.55c1.04 0 1.89.85 1.89 1.89v38.46c0 1.04-.85 1.89-1.89 1.89H83.37c-1.04 0-1.89-.85-1.89-1.89V47.5c0-1.04.85-1.9 1.89-1.9zM25.36 22.07h19.55c1.04 0 1.89.85 1.89 1.89v62c0 1.04-.85 1.89-1.89 1.89H25.36c-1.04 0-1.89-.85-1.89-1.89v-62c0-1.04.85-1.89 1.89-1.89zM54.37 8.83h19.54c1.04 0 1.89.85 1.89 1.89v75.24c0 1.04-.85 1.89-1.89 1.89H54.37c-1.04 0-1.89-.85-1.89-1.89V10.72c0-1.04.85-1.89 1.89-1.89z"/></svg>